<svg width="14" height="14" fill="none" xmlns="http://www.w3.org/2000/svg"><g clip-path="url(#clip0_236_431)"><path d="M2.333 2.917v8.166h9.334V2.917H2.332zM1.75 1.75h10.5a.583.583 0 01.583.583v9.334a.583.583 0 01-.583.583H1.75a.583.583 0 01-.583-.583V2.333a.583.583 0 01.583-.583zM3.5 4.083h1.167V5.25H3.5V4.083zm0 2.334h1.167v1.166H3.5V6.417zm0 2.333h7v1.167h-7V8.75zm2.917-2.333h1.166v1.166H6.416V6.417zm0-2.334h1.166V5.25H6.416V4.083zm2.916 0H10.5V5.25H9.333V4.083zm0 2.334H10.5v1.166H9.333V6.417z" fill="#591EBB"/></g><defs><clipPath id="clip0_236_431"><path fill="#fff" d="M0 0h14v14H0z"/></clipPath></defs></svg>